<svg height="35.911376" viewBox="0 0 119.38626 35.9113761" width="119.38626" xmlns="http://www.w3.org/2000/svg"><g fill="none" fill-rule="evenodd"><path d="m25.5083179 27.6842105h76.2492481l4.258307 5.6842106h-83.1746032z" fill="#fff"/><path d="m13.2737989 6.90678165-.0867989 2.18321835.2652069.00960841c1.7508966.09043621 4.2491012.80798202 5.3927205 1.10227069l.1688109.042598-.1910159 1.9547669c-1.1006249-.2721468-3.9517361-.9637431-5.9078915-1.2193761l.2674354-1.88917432c-1.0938568-.27161835-4.80378405-.12233395-6.76913868.10489541l.06308059-2.17453211c1.84313599-.34084404 5.70025119-.38642202 6.79759069-.11427523zm11.6202989.43761468c1.6308961.7213211 1.3266637.7893578 2.2393609 1.22862385l.7405399 3.39390822c-.9126973-.4419082-2.0067513-1.5271926-3.4687754-2.31588987zm-5.6687767.4818055c1.6420666.37783487 4.0818399 1.41622019 5.1798364 1.82510092l-.3903111 2.14943115c-1.0933969-.5687339-3.2861045-1.0806605-5.0011081-1.5562568zm-12.81705595 1.36905689.00985635 2.00212848-4.1475488.4597431-.59466598-2.19038535zm12.85500275-3.73801394.155369.03761027-.1931186 2.33101651c-1.0993107-.27280734-4.0227018-.91552294-5.9834568-.93930275l.0321973-2.21812844c1.7604856-.06318309 4.7660427.50035511 5.9890091.78880441zm-12.76255026-.68252184-.02956902 2.24653211-5.25014495.44719266-.45273465-2.38260551zm13.09599046-1.60764771c2.2216195.02972477 4.486607 1.76036697 5.5846035 2.03185321l-.2878052 2.14546789c-1.0986536-.27016514-3.5167429-1.82444037-5.4748695-1.84954128zm-6.2342021-.68188624-.08805 2.18311927c-1.0999678-.27148624-4.81055212-.12220184-6.77393548.10634862l.09724924-2.20623853c1.84379308-.34018349 5.66279714-.35405505 6.76473624-.08322936zm6.3840842-1.27466422-.1806996 1.95456881c-1.0999678-.27214679-4.2776525-.68697248-6.2403788-.71273395l.0643948-2.17122935c1.8437931-.34150459 5.2567158.6572477 6.3566836.92939449zm-13.11787152-1.21052477-.03219739 2.56822018-6.21540939.28601835-.3811119-2.51207339z" fill="#94ba0f" transform="translate(32.576243)"/><path d="m20.1330748 3.5656844v7.5907156c0 1.2021047.1972031 1.6531189.446607 2.0885992l.1022019.1751072h-6.0781164c.2945152-.5036697.5481441-.9013211.5481441-2.2637064v-5.32733945c0-1.36304587-.2536289-1.76168807-.5481441-2.26337615zm14.2228587.00006606c-.042216.16678899-.0641551.31310092-.0641551.41944954 0 .23053211.1060388.54429358.2965097.98455046l2.5106925 5.89211014 2.4917452-6.10117436c.0840997-.18990826.1269806-.39930275.1269806-.60836697 0-.18957799-.0428809-.37783487-.1269806-.58656881h2.9331856c-.6761219.94194495-.7592244 1.17445871-1.118892 2.03350459l-3.2077562 7.82091745h-5.2989474l-3.8822161-8.78664222c-.1259834-.3134312-.3373961-.71273395-.6741274-1.06777982zm28.1527313-.00003303.1668698 1.59225688h.0422161c.4836565-1.17247706 1.0118559-1.59225688 2.5559003-1.59225688h2.42759v3.22877064c-.6142936-.35735779-.8267036-.48319266-2.3036011-.48319266-1.9635457 0-2.3411634.33688074-2.3411634 1.67878899v3.1663486c0 1.3623853.2536288 1.7600367.5468144 2.2637064h-6.0771192c.2955125-.5036697.5494737-.9013211.5494737-2.2637064v-5.32733942c0-1.36304587-.2539612-1.76168808-.5494737-2.26337615zm23.3794903.00006606c2.3877009 0 3.3354017 1.00502752 3.3354017 3.7093211v4.29985321c0 1.0066789.1904709 1.445945.485651 1.8452477h-4.9811635l-.2522991-1.0915596h-.0418837c-.2556233.8824954-.6774515 1.0915596-2.027036 1.0915596h-3.5474792c-2.2347923 0-2.8693629-.9217982-2.8693629-2.9764404v-.71471556c0-2.05266055.6345706-2.97644037 2.8693629-2.97644037h4.5393905c.6973962 0 .8436566-.16910091.8436566-.62884403 0-.43893578-.1462604-.62884404-.8436566-.62884404h-4.9592243c-.9297507 0-1.3934626.12517431-1.9858172.41779817l.36-2.34693578zm10.1720111-3.56578349v7.02429358l2.3837119-1.90833028c.8436565-.6892844.9513574-1.07009174 1.058061-1.55031192h4.4931859v.04161468c-.441773.14631192-.90615.31343119-1.267812.58689908l-2.172964 1.67680734 3.253961 5.53871562c.607646 1.0235229.67313 1.1510091 1.41374 2.0103853h-6.0182827l-2.2982825-4.59214679-.8453186.67078899v1.6579816c0 1.2021047.1972031 1.6528619.447292 2.0882817l.1025141.1750945h-6.0761219c.293518-.5036697.5471468-.9009908.5471468-2.2633762v-8.89100913c0-1.36304587-.2536288-1.76234862-.5471468-2.26568807zm-83.6493075.00019817.4427701 2.66466055c-.6342382-.27412844-1.0979501-.44124771-2.0898615-.44124771h-4.79069251c-.80277008 0-.99290859.10436697-.99290859.58557798v.75666055c0 .5013578.19013851.58656881.99290859.58656881h3.65052632c2.19523549 0 3.37728529.7546789 3.37728529 2.70462385v3.2713761c0 2.1170643-.7592244 3.291523-3.22903044 3.291523h-9.28587258l-.44409972-2.7254312.23593876.1156754c.43927047.2084204.93406763.387664 1.79109725.387664h4.9801662c.80243768 0 .97163435-.0832293.97163435-.586899v-.92377986c0-.48055046-.16919667-.58722936-.97163435-.58722936h-4.19867036c-2.04897507 0-2.85041551-.66880734-2.85041551-2.91170642v-3.00088073c0-2.09658716 1.03379501-3.18715596 2.85041551-3.18715596zm15.149651 0v11.15636693c0 1.1219644.1717858 1.5894216.3974652 2.0007751l.0996756.1746041c.017048.0291097.034285.0583694.0516681.087997h-6.077784c.2965097-.5036697.5488089-.9009908.5488089-2.2633762v-8.89100914c0-1.36304587-.2522992-1.76234862-.5488089-2.26535779zm25.6399114 3.56565137c2.2381163 0 2.8703601.92179817 2.8703601 2.97776147v3.01838532h-8.3355125v.92113757c.0212742.7147156.3367313 1.0076698 1.1414958 1.0076698h4.7873685c.9496953 0 1.4579501-.0627523 2.2603878-.4201101l-.3806094 2.3492477h-9.919446c-2.2357895 0-2.871025-.9217982-2.871025-2.9761101v-3.90022019c0-2.0559633.6352355-2.97776147 2.871025-2.97776147zm20.8922991-3.56565137v11.15636693c0 1.3623854.2546261 1.7597065.5481441 2.2633762h-6.0784488c.2955125-.5036697.5501385-.9009908.5501385-2.2633762v-8.89100914c0-1.36304587-.254626-1.76234862-.5501385-2.26535779zm42.0592018 3.56565137c2.235125 0 2.870693.92179817 2.870693 2.97776147v3.01838532h-8.337839v.92113757c.020941.7147156.339058 1.0076698 1.140166 1.0076698h4.789363c.951357 0 1.457285-.0627523 2.259058-.4201101l-.378283 2.3492477h-9.922437c-2.234128 0-2.871358-.9217982-2.871358-2.9761101v-3.90022019c0-2.0559633.63723-2.97776147 2.871358-2.97776147zm-31.9095286 5.11622752h-2.2161773c-.7592244.02047707-1.0527424.12517432-1.0527424.83790826v1.13482568c0 .7107523.293518.8151193 1.0527424.8359266h1.1621052c.9500277 0 1.0540721-.1463119 1.0540721-1.4043303zm-33.7428034-3.18742018h-2.0466482c-.548144 0-.7176731.22987156-.7176731.79629358v1.34157798h3.4826593v-1.34157798c0-.56642202-.1695291-.79629358-.718338-.79629358zm62.951169 0h-2.05097c-.547146 0-.715013.22987156-.715013.79629358v1.34157798h3.480997v-1.34157798c0-.56642202-.167867-.79629358-.715014-.79629358zm-93.3599003-5.49462385v2.59959633h-4.8960665v-2.59959633z" fill="#272f3a" transform="translate(0 11.559534)"/><path d="m118.05651 8.16825688-6.426593-8.16825688h-105.20443224l-6.42548476 8.16825688zm-92.5490308-4.14055046c0 .12330275-.0603878.2333945-.1584487.31761468l-.0437673.03247707-1.366759 1.30348623-1.1722992-1.25009174-.0110803-.03412844c-.1407203-.0853211-.231025-.21963303-.231025-.3693578 0-.25761468.264266-.46623853.5900277-.46623853.1628809 0 .3096953.05174312.4171745.13706422l.0581718.04238532c-.2515236-1.08550459-1.4548477-1.90733945-2.9013851-1.90733945-1.6293628 0-2.9501385 1.04422019-2.9501385 2.33009174 0 1.28752294 1.3207757 2.33174312 2.9501385 2.33174312.4393352 0 .8554017-.07541284 1.231025-.2119266l.0853185.00550459c.2277009 0 .4121884.14697247.4121884.32642201 0 .1133945-.0731302.21247707-.1839335.27247707h.000554c-.4720222.16733945-.9950139.26091743-1.5451524.26091743-2.0853185 0-3.7761772-1.33706422-3.7761772-2.98513762 0-1.64807339 1.6908587-2.98293578 3.7761772-2.98293578 1.9135734 0 3.4958449 1.12568808 3.7418283 2.58495413.1063712-.12385321.2847645-.20422018.4875346-.20422018.3257618 0 .5900277.20862385.5900277.46623853zm5.0055402 2.07192661h-.9390582c-.0393352-.17229358-.0393352-.38972477-.0476454-.49211009h-.0155125c-.2465374.36440367-.7800554.56917431-1.2648199.56917431-.7246538 0-1.432687-.35174312-1.432687-.97706422 0-.49266055.2941828-.77944954.700277-.93853211.4055402-.15963303.9313019-.19211009 1.3767313-.19211009h.5883657c0-.52954129-.2941829-.70788991-.9229917-.70788991-.4531856 0-.9069252.13981651-1.264266.3572477l-.0326869-.73431192c.4138504-.15412844.9706371-.24880734 1.4243767-.24880734 1.2493075 0 1.766205.41449541 1.766205 1.38495413v.42165137c0 .33192661.0083102.58073395.0160665.82348624.0077562.24880734.0238227.47889908.0476454.73431193zm4.5534626 0h-1.0105263v-.44752294h-.0160665c-.3263158.31981652-.7872576.52458716-1.3440443.52458716-.9711912 0-1.3927978-.54990826-1.3927978-1.29027523v-2.07522936h1.065928v1.7559633c0 .40238532.0077562.94458716.6919667.94458716.7722992 0 .9396122-.66990826.9396122-1.09155963v-1.60899083h1.065928zm3.33518 0c-.2221606.05119266-.468698.07706422-.7872576.07706422-.834903 0-1.2969529-.41559633-1.2969529-1.06678899v-1.6733945h-.7872576v-.6253211h.7872576v-.65724771l1.067036-.27412844v.93137615h.9457064v.6253211h-.9457064v1.53302752c0 .28128441.0947369.54220184.500277.54220184.1916898 0 .3745153-.03137615.4853186-.08917431zm4.4897507-1.62165138c0 .94458716-.7878116 1.6987156-2.1479224 1.6987156-1.3529086 0-2.1412742-.75412844-2.1412742-1.6987156 0-1.08550459.9313019-1.74275229 2.1412742-1.74275229 1.2166205 0 2.1479224.6572477 2.1479224 1.74275229zm6.6376732 1.62165138h-1.066482v-1.96018349c0-.3066055 0-.74036697-.6127424-.74036697-.7080332 0-.7950139.67651376-.7950139 1.10422018v1.59633028h-1.0664819v-1.96018349c0-.3066055 0-.74036697-.6127424-.74036697-.7080333 0-.7950139.67651376-.7950139 1.10422018v1.59633028h-1.067036v-3.28844037h.9950139v.46018349h.0155124c.3351801-.40238532.8199446-.53614679 1.2171745-.53614679.5734072 0 .9795014.17174312 1.2099723.58073394.2465374-.39577981.7789474-.58073394 1.2803324-.58073394 1.0110804 0 1.297507.55541284 1.297507 1.28917431zm4.9041551-1.62165138c0 .94458716-.7872576 1.6987156-2.1484765 1.6987156-1.3518005 0-2.1396121-.75412844-2.1396121-1.6987156 0-1.08550459.9307479-1.74275229 2.1396121-1.74275229 1.2182826 0 2.1484765.6572477 2.1484765 1.74275229zm3.0736842 1.62165138c-.2232687.05119266-.4692521.07706422-.7872576.07706422-.8354571 0-1.2969529-.41559633-1.2969529-1.06678899v-1.6733945h-.7878117v-.6253211h.7878117v-.65724771l1.066482-.27412844v.93137615h.9462604v.6253211h-.9462604v1.53302752c0 .28128441.0952908.54220184.500277.54220184.1911357 0 .3745152-.03137615.4858726-.08917431zm.4864266-3.88899083h1.066482v-.81633027h-1.066482zm0 3.88899083h1.066482v-3.28788991h-1.066482zm5.7700831-3.28844037-1.5124654 3.28844037h-1.201108l-1.5196676-3.28844037h1.1462604l1.0177285 2.39394495h.0155125l.9878116-2.39394495zm4.0354571 1.90844037h-2.832133c.0476454.53119266.5096953.83119266 1.1684211.83119266.5180055 0 .9628808-.15357798 1.3617728-.33247707v.69633028c-.3894737.17229358-.8365651.26201835-1.4083102.26201835-1.3529086 0-2.1407203-.62587156-2.1407203-1.7053211 0-.95119266.6282549-1.73614679 1.9013851-1.73614679 1.5207756 0 1.9495845.83559633 1.9495845 1.98440367zm5.0869806-1.09706422c-.0952909-.04458716-.2858726-.07045872-.4770083-.07045872-.866482 0-.866482.8680734-.866482 1.34091743v1.20660551h-1.066482v-3.28844037h.9468144v.74697248h.0155124c.0470915-.30660551.4847646-.82293578 1.1218837-.82293578.1030471 0 .2149585 0 .3257618.0253211zm3.9085872 1.09706422h-2.8315789c.0476454.53119266.5091413.83119266 1.1689751.83119266.5174515 0 .9639889-.15357798 1.3612188-.33247707v.69633028c-.3905817.17229358-.8354571.26201835-1.4077562.26201835-1.3534626 0-2.1407203-.62587156-2.1407203-1.7053211 0-.95119266.6277009-1.73614679 1.9013851-1.73614679 1.5202216 0 1.9484764.83559633 1.9484764 1.98440367zm3.4631579 1.34807339c-.3091412.07651376-.6282548.10899083-1.0648199.10899083-1.3451524 0-2.0216067-.73431193-2.0216067-1.73724771 0-.95119266.700277-1.70422018 1.9806095-1.70422018.4299169 0 .7401662.03798165 1.034903.10788991l-.0952909.67706422c-.1905817-.07045872-.3972299-.12110092-.7235457-.12110092-.6609418 0-1.0825484.42110092-1.0825484 1.04036697 0 .60660551.3567867 1.07229358 1.1058171 1.07229358.3030471 0 .6365651-.08917431.8193906-.15302752zm4.298615-3.25651376-1.5351801 3.26256881c-.3418282.72825688-.5883656 1.44330275-1.7030471 1.44330275-.2537396 0-.5080332-.03192661-.7551246-.08972477l.0720221-.63192661c.1335181.03853211.2858726.05724771.5479225.05724771.4304709 0 .6919667-.23504587.6919667-.58678899l-1.566759-3.4546789h1.1778394l.9867036 2.40055046h.0149584l.9867036-2.40055046zm3.2648199 3.25651376c-.3102493.07651376-.6282548.10899083-1.0653739.10899083-1.3457064 0-2.0216067-.73431193-2.0216067-1.73724771 0-.95119266.700277-1.70422018 1.9800554-1.70422018.4299169 0 .7407202.03798165 1.0360111.10788991l-.0963989.67706422c-.1916897-.07045872-.3977839-.12110092-.7235457-.12110092-.6609418 0-1.0836565.42110092-1.0836565 1.04036697 0 .60660551.3601108 1.07229358 1.1063712 1.07229358.3030471 0 .6371191-.08917431.8210526-.15302752zm.5346261.03192661h1.0659279v-4.78899083h-1.0659279zm2.0132964-3.88899083h1.067036v-.81633027h-1.067036zm0 3.88899083h1.067036v-3.28788991h-1.067036zm5.7540166 0h-1.065928v-1.75596331c0-.40183486-.0083102-.94458715-.6936288-.94458715-.7706371 0-.9373961.66990826-.9373961 1.09155963v1.60899083h-1.066482v-3.28844037h1.0099723v.44752294h.0166205c.333518-.37706422.7878116-.52348624 1.3440443-.52348624.9700831 0 1.3927978.54880734 1.3927978 1.28917431zm4.6642663-.31926606c0 .89394496-.444876 1.73669725-2.1639893 1.73669725-.4210526 0-.9069252-.05119266-1.4149585-.22348624l.0864266-.72770642c.3263158.14036697.8592798.28678899 1.1944599.28678899 1.1772853 0 1.232687-.70844037 1.232687-1.27706422h-.0166205c-.198338.2812844-.6759003.5240367-1.2720222.5240367-1.2099723 0-1.6720222-.77944954-1.6720222-1.66018349 0-.79155963.5096953-1.70422018 1.7340721-1.70422018.5418282 0 .9634349.14642202 1.2587257.52348624h.0155125v-.44752294h1.0177289zm-1.0653743-1.36018348c0-.56146789-.2714682-1.02110092-.8914128-1.02110092-.7229917 0-.9545706.53614679-.9545706 1.04036697 0 .44697248.2936288.99633028.9069252.99633028.66759 0 .9390582-.46623854.9390582-1.01559633zm-25.7590028-.28788991h1.8144044c-.0321329-.41394496-.2703601-.77119266-.867036-.77119266-.5977839 0-.899723.33137614-.9473684.77119266zm-8.9961219 0h1.8138504c-.0321329-.41394496-.2703601-.77119266-.866482-.77119266-.5977839 0-.899723.33137614-.9473684.77119266zm-11.6470914.24330275c0-.50366972-.334072-.97651376-1.0349031-.97651376-.6919667 0-1.0254847.48495413-1.0254847.97651376 0 .54275229.2149584 1.13614679 1.0254847 1.13614679.8204987 0 1.0349031-.58733945 1.0349031-1.13614679zm-11.5423823 0c0-.50366972-.334626-.97651376-1.033795-.97651376-.6925208 0-1.0265928.48495413-1.0265928.97651376 0 .54275229.2144044 1.13614679 1.0265928 1.13614679.8188366 0 1.033795-.58733945 1.033795-1.13614679zm-12.5213296.8812844c.1750692-.18605504.2227147-.42165137.2227147-.67651376h-.4614959c-.4775623 0-1.1850415.06385321-1.1850415.56752294 0 .28183486.2941828.40293578.6759002.40293578.3263158 0 .5811635-.11504587.7479225-.29394496z" fill="#94ba0f" transform="translate(1.329751 27.743119)"/></g></svg>